<?xml version="1.0" encoding="utf-8"?>
<!-- Generator: Adobe Illustrator 16.0.0, SVG Export Plug-In . SVG Version: 6.00 Build 0)  -->
<!DOCTYPE svg PUBLIC "-//W3C//DTD SVG 1.1//EN" "http://www.w3.org/Graphics/SVG/1.1/DTD/svg11.dtd">
<svg version="1.1" xmlns="http://www.w3.org/2000/svg" xmlns:xlink="http://www.w3.org/1999/xlink" x="0px" y="0px" width="60px"
	 height="60px" viewBox="0 0 60 60" enable-background="new 0 0 60 60" xml:space="preserve">
<g id="Layer_1">
</g>
<g id="txt">
	<linearGradient id="SVGID_2_" gradientUnits="userSpaceOnUse" x1="30" y1="58.4287" x2="30" y2="6.3545">
		<stop  offset="0" style="stop-color:#477256"/>
		<stop  offset="1" style="stop-color:#135D6B"/>
	</linearGradient>
	<rect fill="url(#SVGID_2_)" width="60" height="60.001"/>
	<g>
		<path fill="#FFFFFF" d="M47.678,49.464c0,1.09-0.877,1.973-1.959,1.973H14.283c-1.084,0-1.961-0.883-1.961-1.973V21.993
			c0-1.09,0.877-1.973,1.961-1.973h31.436c1.082,0,1.959,0.883,1.959,1.973V49.464z"/>
		<g>
			<path fill="#FFC500" d="M43.737,44.077c0,0.553-0.447,1-1,1h-3.303c-0.553,0-1-0.447-1-1v-11.85c0-0.553,0.447-1,1-1h3.303
				c0.553,0,1,0.447,1,1V44.077z"/>
			<path fill="none" stroke="#293F54" stroke-width="0.5669" stroke-miterlimit="10" d="M45.641,48.729c0,0.552-0.447,1-1,1H15.078
				c-0.553,0-1-0.448-1-1v-26c0-0.552,0.447-1,1-1h29.563c0.553,0,1,0.448,1,1V48.729z"/>
			
				<line fill="none" stroke="#293F54" stroke-width="0.5669" stroke-miterlimit="10" x1="14.234" y1="28.666" x2="45.922" y2="28.666"/>
			<circle fill="#00B1CC" cx="16.984" cy="25.291" r="0.813"/>
			<circle fill="#00B1CC" cx="20.984" cy="25.291" r="0.813"/>
			<circle fill="#00B1CC" cx="24.984" cy="25.291" r="0.813"/>
			
				<path fill="none" stroke="#293F54" stroke-width="0.3844" stroke-linecap="round" stroke-linejoin="round" stroke-miterlimit="10" d="
				M29.051,40.159c0,0.553-0.447,1-1,1h-4.387c-0.553,0-1-0.447-1-1v-4.387c0-0.553,0.447-1,1-1h4.387c0.553,0,1,0.447,1,1V40.159z"
				/>
			
				<path fill="none" stroke="#293F54" stroke-width="0.3844" stroke-linecap="round" stroke-linejoin="round" stroke-miterlimit="10" d="
				M37.055,40.159c0,0.553-0.447,1-1,1h-4.387c-0.553,0-1-0.447-1-1v-4.387c0-0.553,0.447-1,1-1h4.387c0.553,0,1,0.447,1,1V40.159z"
				/>
			<polygon fill="#99E0EB" points="26.028,35.98 26.673,37.287 28.115,37.497 27.072,38.515 27.318,39.951 26.028,39.273 
				24.738,39.951 24.984,38.515 23.941,37.497 25.384,37.287 			"/>
			<path fill="#99E0EB" d="M32.085,39.688c0.046-0.135,1.68-3.444,1.68-3.444l1.872,3.444H32.085z"/>
			
				<polyline fill="none" stroke="#FFFFFF" stroke-width="1.1339" stroke-linecap="round" stroke-linejoin="round" stroke-miterlimit="10" points="
				39.89,33.969 42.61,37.899 39.89,42.031 			"/>
			<path fill="#FFC500" d="M16.257,44.077c0,0.553,0.447,1,1,1h3.303c0.553,0,1-0.447,1-1v-11.85c0-0.553-0.447-1-1-1h-3.303
				c-0.553,0-1,0.447-1,1V44.077z"/>
			
				<polyline fill="none" stroke="#FFFFFF" stroke-width="1.1339" stroke-linecap="round" stroke-linejoin="round" stroke-miterlimit="10" points="
				20.104,33.969 17.384,37.899 20.104,42.031 			"/>
			<g>
				
					<polyline fill="#FFFFFF" stroke="#293F54" stroke-width="0.4544" stroke-linecap="round" stroke-linejoin="round" stroke-miterlimit="10" points="
					37.523,46.45 38.769,47.62 39.989,42.425 34.879,43.965 36.123,45.136 				"/>
				<g>
					
						<line fill="none" stroke="#293F54" stroke-width="0.4544" stroke-linecap="round" stroke-linejoin="round" stroke-miterlimit="10" x1="36.514" y1="46.121" x2="35.054" y2="47.675"/>
				</g>
			</g>
			<circle fill="#293F54" cx="30.25" cy="25.291" r="0.5"/>
			<circle fill="#293F54" cx="32.775" cy="25.291" r="0.5"/>
			<circle fill="#293F54" cx="35.301" cy="25.291" r="0.5"/>
			<circle fill="#293F54" cx="37.826" cy="25.291" r="0.5"/>
			<circle fill="#293F54" cx="40.351" cy="25.291" r="0.5"/>
			<circle fill="#293F54" cx="42.875" cy="25.291" r="0.5"/>
		</g>
	</g>
	<path fill="#98C020" d="M29.011,7.008c0.309,0,0.575-0.107,0.8-0.324c0.199-0.191,0.304-0.391,0.313-0.6
		c0.009-0.141-0.046-0.281-0.163-0.418c-0.116-0.137-0.263-0.205-0.437-0.205c-0.3,0-0.573,0.1-0.819,0.299
		c-0.244,0.199-0.372,0.408-0.38,0.625C28.308,6.801,28.536,7.008,29.011,7.008z"/>
	<path fill="#FFFFFF" d="M37.515,11.229l-0.14-0.186c-0.095,0.109-0.214,0.225-0.361,0.348c-0.179,0.148-0.302,0.223-0.37,0.223
		c-0.094,0-0.154-0.02-0.178-0.061c-0.024-0.039-0.035-0.109-0.029-0.213c0-0.039,0.03-0.191,0.092-0.455s0.095-0.465,0.101-0.602
		c0.004-0.203-0.033-0.359-0.111-0.467C36.414,9.684,36.241,9.627,36,9.646c-0.281,0.025-0.574,0.135-0.88,0.332
		c-0.128,0.084-0.251,0.184-0.37,0.297c0.213-0.891,0.321-1.498,0.326-1.824c0.005-0.484-0.194-0.734-0.599-0.748
		c-0.458-0.016-0.794,0.242-1.006,0.775c0.089-0.039,0.174-0.059,0.251-0.059c0.064,0,0.131,0.039,0.2,0.117
		c0.103,0.125,0.146,0.314,0.125,0.57c-0.014,0.189-0.059,0.592-0.134,1.207c-0.016,0.154-0.032,0.297-0.046,0.428
		c-0.029,0.021-0.057,0.043-0.088,0.063c-0.374,0.25-0.716,0.375-1.022,0.375c-0.408,0-0.608-0.154-0.6-0.461
		c0.017-0.535,0.107-1.234,0.274-2.1h0.887c0.067,0,0.101-0.029,0.101-0.088l0.11-0.535c0.018-0.084-0.019-0.125-0.11-0.125h-0.837
		c0.199-0.949,0.337-1.607,0.411-1.975c0.017-0.066-0.033-0.1-0.148-0.1c-0.219,0-0.501,0.092-0.85,0.275
		c-0.375,0.199-0.58,0.4-0.612,0.6l-0.2,1.199h-0.513c-0.066,0-0.104,0.029-0.112,0.086l-0.112,0.537
		c-0.017,0.084,0.021,0.125,0.112,0.125h0.514c-0.126,0.723-0.222,1.32-0.285,1.797c-0.124,0.123-0.266,0.254-0.428,0.389
		c-0.299,0.25-0.507,0.375-0.623,0.375c-0.268,0-0.396-0.18-0.389-0.537c0.125-0.783,0.242-1.428,0.35-1.936
		c0.033-0.299-0.015-0.543-0.144-0.73s-0.33-0.27-0.604-0.244c-0.176,0.018-0.441,0.184-0.8,0.5c-0.266,0.242-0.533,0.482-0.8,0.725
		l0.288,0.338c0.232-0.176,0.374-0.264,0.424-0.264c0.15,0,0.225,0.109,0.225,0.324c0,0.043-0.081,0.352-0.243,0.924
		c-0.041,0.146-0.077,0.283-0.108,0.41c-0.375,0.26-0.856,0.531-1.446,0.814c0.301-0.99,0.466-1.914,0.499-2.771
		c0.026-0.691-0.282-1.045-0.923-1.063c-0.774-0.023-1.282,0.408-1.523,1.299c0.135-0.057,0.274-0.086,0.418-0.086
		c0.118,0,0.215,0.047,0.292,0.143c0.075,0.096,0.109,0.207,0.102,0.33c-0.009,0.326-0.175,0.674-0.497,1.043
		c-0.323,0.371-0.61,0.557-0.862,0.557c-0.176,0-0.261-0.15-0.252-0.449c0.009-0.158,0.063-0.479,0.162-0.963
		c0.091-0.457,0.137-0.766,0.137-0.924c0-0.273-0.07-0.496-0.211-0.668c-0.142-0.17-0.347-0.244-0.612-0.219
		c-0.184,0.018-0.454,0.184-0.812,0.5c-0.267,0.242-0.532,0.482-0.8,0.725l0.287,0.338c0.233-0.176,0.376-0.264,0.425-0.264
		c0.158,0,0.233,0.109,0.225,0.324c0,0.018-0.074,0.279-0.225,0.787c-0.149,0.508-0.228,0.887-0.236,1.137
		c-0.017,0.342,0.046,0.604,0.188,0.787c0.174,0.225,0.467,0.32,0.876,0.287c0.485-0.033,0.97-0.213,1.455-0.537
		c0.201-0.133,0.393-0.287,0.576-0.463c-0.066,0.334-0.146,0.617-0.236,0.85c-0.9,0.408-1.549,0.758-1.948,1.049
		c-0.566,0.408-0.87,0.846-0.911,1.311c-0.076,0.808,0.332,1.212,1.223,1.212c0.6,0,1.179-0.365,1.736-1.099
		c0.475-0.623,0.887-1.457,1.236-2.498c0.605-0.299,1.116-0.594,1.535-0.881c-0.014,0.096-0.022,0.182-0.024,0.258
		c-0.009,0.266,0.057,0.482,0.193,0.648c0.138,0.168,0.335,0.25,0.594,0.25c0.557,0,1.116-0.242,1.674-0.725
		c0.162-0.143,0.31-0.291,0.444-0.447c-0.007,0.107-0.01,0.199-0.009,0.273c0.009,0.6,0.358,0.898,1.05,0.898
		c0.565,0,1.174-0.242,1.823-0.725c0.089-0.064,0.17-0.129,0.248-0.193c0,0.002,0,0.006,0,0.01c-0.01,0.236,0.045,0.424,0.162,0.563
		c0.148,0.168,0.389,0.246,0.725,0.238c-0.044-0.105-0.062-0.297-0.051-0.578c0.009-0.32,0.121-0.623,0.334-0.908
		c0.193-0.262,0.373-0.393,0.537-0.393c0.108,0,0.158,0.092,0.148,0.273c-0.006,0.119-0.034,0.289-0.086,0.514
		c-0.051,0.225-0.079,0.418-0.085,0.58c-0.005,0.158,0.034,0.287,0.115,0.385c0.081,0.1,0.197,0.148,0.351,0.148
		c0.33,0,0.66-0.143,0.991-0.43C37.188,11.727,37.377,11.488,37.515,11.229z M23.642,14.039c-0.134,0-0.195-0.059-0.187-0.174
		c0.016-0.217,0.39-0.504,1.122-0.863C24.195,13.693,23.884,14.039,23.642,14.039z"/>
</g>
</svg>
